{
  "asset": {
    "generator": "Khronos glTF Blender I/O v3.2.43",
    "version": "2.0"
  },
  "scene": 0,
  "scenes": [
    {
      "name": "Scene",
      "nodes": [
        0
      ]
    }
  ],
  "nodes": [
    {
      "mesh": 0,
      "name": "Cube"
    }
  ],
  "materials": [
    {
      "doubleSided": true,
      "name": "Material",
      "pbrMetallicRoughness": {
        "baseColorFactor": [
          0,
          0,
          0,
          1
        ],
        "metallicFactor": 0,
        "roughnessFactor": 0.4000000059604645
      }
    },
    {
      "doubleSided": true,
      "name": "Material.001",
      "pbrMetallicRoughness": {
        "baseColorFactor": [
          0.8000000715255737,
          0,
          0.031232472509145737,
          1
        ],
        "metallicFactor": 0,
        "roughnessFactor": 0.5
      }
    },
    {
      "doubleSided": true,
      "name": "Material.002",
      "pbrMetallicRoughness": {
        "baseColorFactor": [
          0.800000011920929,
          0.800000011920929,
          0.800000011920929,
          1
        ],
        "metallicFactor": 0,
        "roughnessFactor": 0.5
      }
    },
    {
      "doubleSided": true,
      "name": "Material.003",
      "pbrMetallicRoughness": {
        "baseColorFactor": [
          0.007409060839563608,
          0.15279318392276764,
          0.8000000715255737,
          1
        ],
        "metallicFactor": 0,
        "roughnessFactor": 0.5
      }
    },
    {
      "doubleSided": true,
      "name": "Material.004",
      "pbrMetallicRoughness": {
        "baseColorFactor": [
          1,
          0.09989847242832184,
          0,
          1
        ],
        "metallicFactor": 0,
        "roughnessFactor": 0.5
      }
    },
    {
      "doubleSided": true,
      "name": "Material.005",
      "pbrMetallicRoughness": {
        "baseColorFactor": [
          0,
          0.3277779817581177,
          0.0648033395409584,
          1
        ],
        "metallicFactor": 0,
        "roughnessFactor": 0.5
      }
    },
    {
      "doubleSided": true,
      "name": "Material.006",
      "pbrMetallicRoughness": {
        "baseColorFactor": [
          1,
          0.6653870344161987,
          0,
          1
        ],
        "metallicFactor": 0,
        "roughnessFactor": 0.5
      }
    }
  ],
  "meshes": [
    {
      "name": "Cube",
      "primitives": [
        {
          "attributes": {
            "POSITION": 0,
            "NORMAL": 1,
            "TEXCOORD_0": 2
          },
          "indices": 3,
          "material": 0
        },
        {
          "attributes": {
            "POSITION": 4,
            "NORMAL": 5,
            "TEXCOORD_0": 6
          },
          "indices": 7,
          "material": 1
        },
        {
          "attributes": {
            "POSITION": 8,
            "NORMAL": 9,
            "TEXCOORD_0": 10
          },
          "indices": 11,
          "material": 2
        },
        {
          "attributes": {
            "POSITION": 12,
            "NORMAL": 13,
            "TEXCOORD_0": 14
          },
          "indices": 15,
          "material": 3
        },
        {
          "attributes": {
            "POSITION": 16,
            "NORMAL": 17,
            "TEXCOORD_0": 18
          },
          "indices": 15,
          "material": 4
        },
        {
          "attributes": {
            "POSITION": 19,
            "NORMAL": 20,
            "TEXCOORD_0": 21
          },
          "indices": 7,
          "material": 5
        },
        {
          "attributes": {
            "POSITION": 22,
            "NORMAL": 23,
            "TEXCOORD_0": 24
          },
          "indices": 25,
          "material": 6
        }
      ]
    }
  ],
  "accessors": [
    {
      "bufferView": 0,
      "componentType": 5126,
      "count": 34533,
      "max": [
        4.960000038146973,
        4.960000038146973,
        1
      ],
      "min": [
        -1.0000007152557373,
        -1,
        -4.960000038146973
      ],
      "type": "VEC3"
    },
    {
      "bufferView": 1,
      "componentType": 5126,
      "count": 34533,
      "type": "VEC3"
    },
    {
      "bufferView": 2,
      "componentType": 5126,
      "count": 34533,
      "type": "VEC2"
    },
    {
      "bufferView": 3,
      "componentType": 5123,
      "count": 189864,
      "type": "SCALAR"
    },
    {
      "bufferView": 4,
      "componentType": 5126,
      "count": 36,
      "max": [
        4.960000038146973,
        4.828999996185303,
        0.8690000176429749
      ],
      "min": [
        4.9599995613098145,
        -0.8690000176429749,
        -4.828999996185303
      ],
      "type": "VEC3"
    },
    {
      "bufferView": 5,
      "componentType": 5126,
      "count": 36,
      "type": "VEC3"
    },
    {
      "bufferView": 6,
      "componentType": 5126,
      "count": 36,
      "type": "VEC2"
    },
    {
      "bufferView": 7,
      "componentType": 5123,
      "count": 54,
      "type": "SCALAR"
    },
    {
      "bufferView": 8,
      "componentType": 5126,
      "count": 36,
      "max": [
        4.828999996185303,
        4.960000038146973,
        0.8690000176429749
      ],
      "min": [
        -0.8690007328987122,
        4.960000038146973,
        -4.828999996185303
      ],
      "type": "VEC3"
    },
    {
      "bufferView": 9,
      "componentType": 5126,
      "count": 36,
      "type": "VEC3"
    },
    {
      "bufferView": 10,
      "componentType": 5126,
      "count": 36,
      "type": "VEC2"
    },
    {
      "bufferView": 11,
      "componentType": 5123,
      "count": 54,
      "type": "SCALAR"
    },
    {
      "bufferView": 12,
      "componentType": 5126,
      "count": 36,
      "max": [
        4.8289995193481445,
        4.828999996185303,
        -4.960000038146973
      ],
      "min": [
        -0.8690007328987122,
        -0.8690000176429749,
        -4.960000038146973
      ],
      "type": "VEC3"
    },
    {
      "bufferView": 13,
      "componentType": 5126,
      "count": 36,
      "type": "VEC3"
    },
    {
      "bufferView": 14,
      "componentType": 5126,
      "count": 36,
      "type": "VEC2"
    },
    {
      "bufferView": 15,
      "componentType": 5123,
      "count": 54,
      "type": "SCALAR"
    },
    {
      "bufferView": 16,
      "componentType": 5126,
      "count": 36,
      "max": [
        -1,
        4.828999996185303,
        0.8690000176429749
      ],
      "min": [
        -1.0000007152557373,
        -0.8690000176429749,
        -4.828999996185303
      ],
      "type": "VEC3"
    },
    {
      "bufferView": 17,
      "componentType": 5126,
      "count": 36,
      "type": "VEC3"
    },
    {
      "bufferView": 18,
      "componentType": 5126,
      "count": 36,
      "type": "VEC2"
    },
    {
      "bufferView": 19,
      "componentType": 5126,
      "count": 36,
      "max": [
        4.828999996185303,
        4.828999996185303,
        1
      ],
      "min": [
        -0.8690000176429749,
        -0.8690000176429749,
        1
      ],
      "type": "VEC3"
    },
    {
      "bufferView": 20,
      "componentType": 5126,
      "count": 36,
      "type": "VEC3"
    },
    {
      "bufferView": 21,
      "componentType": 5126,
      "count": 36,
      "type": "VEC2"
    },
    {
      "bufferView": 22,
      "componentType": 5126,
      "count": 36,
      "max": [
        4.828999996185303,
        -1,
        0.8690000176429749
      ],
      "min": [
        -0.8690007328987122,
        -1,
        -4.828999996185303
      ],
      "type": "VEC3"
    },
    {
      "bufferView": 23,
      "componentType": 5126,
      "count": 36,
      "type": "VEC3"
    },
    {
      "bufferView": 24,
      "componentType": 5126,
      "count": 36,
      "type": "VEC2"
    },
    {
      "bufferView": 25,
      "componentType": 5123,
      "count": 54,
      "type": "SCALAR"
    }
  ],
  "bufferViews": [
    {
      "buffer": 0,
      "byteLength": 414396,
      "byteOffset": 0
    },
    {
      "buffer": 0,
      "byteLength": 414396,
      "byteOffset": 414396
    },
    {
      "buffer": 0,
      "byteLength": 276264,
      "byteOffset": 828792
    },
    {
      "buffer": 0,
      "byteLength": 379728,
      "byteOffset": 1105056
    },
    {
      "buffer": 0,
      "byteLength": 432,
      "byteOffset": 1484784
    },
    {
      "buffer": 0,
      "byteLength": 432,
      "byteOffset": 1485216
    },
    {
      "buffer": 0,
      "byteLength": 288,
      "byteOffset": 1485648
    },
    {
      "buffer": 0,
      "byteLength": 108,
      "byteOffset": 1485936
    },
    {
      "buffer": 0,
      "byteLength": 432,
      "byteOffset": 1486044
    },
    {
      "buffer": 0,
      "byteLength": 432,
      "byteOffset": 1486476
    },
    {
      "buffer": 0,
      "byteLength": 288,
      "byteOffset": 1486908
    },
    {
      "buffer": 0,
      "byteLength": 108,
      "byteOffset": 1487196
    },
    {
      "buffer": 0,
      "byteLength": 432,
      "byteOffset": 1487304
    },
    {
      "buffer": 0,
      "byteLength": 432,
      "byteOffset": 1487736
    },
    {
      "buffer": 0,
      "byteLength": 288,
      "byteOffset": 1488168
    },
    {
      "buffer": 0,
      "byteLength": 108,
      "byteOffset": 1488456
    },
    {
      "buffer": 0,
      "byteLength": 432,
      "byteOffset": 1488564
    },
    {
      "buffer": 0,
      "byteLength": 432,
      "byteOffset": 1488996
    },
    {
      "buffer": 0,
      "byteLength": 288,
      "byteOffset": 1489428
    },
    {
      "buffer": 0,
      "byteLength": 432,
      "byteOffset": 1489716
    },
    {
      "buffer": 0,
      "byteLength": 432,
      "byteOffset": 1490148
    },
    {
      "buffer": 0,
      "byteLength": 288,
      "byteOffset": 1490580
    },
    {
      "buffer": 0,
      "byteLength": 432,
      "byteOffset": 1490868
    },
    {
      "buffer": 0,
      "byteLength": 432,
      "byteOffset": 1491300
    },
    {
      "buffer": 0,
      "byteLength": 288,
      "byteOffset": 1491732
    },
    {
      "buffer": 0,
      "byteLength": 108,
      "byteOffset": 1492020
    }
  ],
  "buffers": [
    {
      "uri": "untitled_data.bin",
      "byteLength": 1492128
    }
  ]
}